<?xml version="1.0" encoding="utf-8"?>
<!-- Generator: Adobe Illustrator 23.0.2, SVG Export Plug-In . SVG Version: 6.00 Build 0)  -->
<svg version="1.1" xmlns="http://www.w3.org/2000/svg" xmlns:xlink="http://www.w3.org/1999/xlink" x="0px" y="0px"
	 viewBox="0 0 850.39 850.39" style="enable-background:new 0 0 850.39 850.39;" xml:space="preserve">
<style type="text/css">
	.st0{fill:#FFFFFF;}
	.st1{fill:#FFFFFF;stroke:#000000;stroke-width:27;stroke-miterlimit:10;}
</style>
<g id="Ebene_2">
	<g>
		<path class="st0" d="M659.53,257.4c0.87-8.87,1.16-23.74-4.6-40.6c-3.4-9.96-7.14-20.92-17.62-29.87
			c-17.82-15.23-40.84-12.43-46.72-11.49c-72-0.82-256.04,153.75-245.63,172.81c10.68,19.55,268.15-127.28,302-81
			c17.08,23.35-24.38,93.31-82,125c-61.79,33.99-142.1,23.95-200-27"/>
		<path d="M659.53,257.4c0.34-10.51-0.85-20.98-3.73-30.88c-0.75-2.47-1.54-4.91-2.46-7.31c-0.89-2.38-1.91-4.86-2.9-7.22
			c-2.01-4.74-4.31-9.23-7.2-13.19c-5.73-7.94-14.05-13.57-23.18-16.31c-4.57-1.39-9.37-2.09-14.18-2.24
			c-4.81-0.14-9.7,0.23-14.33,1.17l-0.25,0.05l-0.78,0.03c-4.61,0.15-9.37,0.99-14.11,2.2c-4.74,1.22-9.47,2.78-14.15,4.58
			c-9.37,3.59-18.53,8.08-27.54,12.89c-9.01,4.82-17.85,10.07-26.54,15.58c-8.69,5.52-17.28,11.22-25.72,17.16
			c-16.87,11.9-33.35,24.41-49.32,37.52c-15.94,13.11-31.56,26.66-46.16,40.96c-7.28,7.12-14.4,14.42-20.66,21.89
			c-1.55,1.86-3.05,3.73-4.41,5.58c-1.36,1.84-2.61,3.68-3.53,5.31c-0.46,0.8-0.83,1.55-1.03,2.06c-0.1,0.24-0.15,0.43-0.15,0.44
			c0.01-0.01,0.01-0.03,0.05-0.15c0.03-0.11,0.06-0.29,0.09-0.6c0.03-0.57,0.11-1.77-0.55-3.59c-0.18-0.46-0.36-0.88-0.68-1.43
			c-0.34-0.59-0.73-1.14-1.17-1.64c-0.87-0.99-1.78-1.66-2.5-2.08c-1.48-0.82-2.19-0.89-2.5-0.97c-0.33-0.05-0.29-0.04-0.14-0.05
			c0.32-0.01,1.11-0.08,1.99-0.22c0.88-0.14,1.89-0.35,2.94-0.6c2.1-0.49,4.37-1.14,6.67-1.86c4.6-1.43,9.35-3.14,14.09-4.92
			c9.51-3.59,19.08-7.54,28.66-11.56c19.19-7.98,38.43-16.28,57.8-24.41c19.4-8.08,38.96-15.97,58.84-23.35
			c9.94-3.71,20-7.16,30.19-10.44c10.2-3.26,20.53-6.28,31.15-8.82c5.31-1.28,10.7-2.4,16.22-3.31c5.52-0.91,11.16-1.62,17.03-1.92
			c5.88-0.28,12-0.22,18.65,1.02c3.32,0.64,6.8,1.6,10.37,3.24c3.55,1.63,7.23,4.04,10.29,7.39c3.09,3.34,5.25,7.45,6.45,11.33
			c1.22,3.92,1.67,7.69,1.71,11.2c0.06,7.04-1.26,13.23-2.97,19.02c-1.75,5.78-3.97,11.17-6.47,16.32
			c-2.5,5.15-5.28,10.06-8.28,14.78c-6.01,9.44-12.8,18.18-20.15,26.38c-7.36,8.19-15.33,15.78-23.87,22.7
			c-8.54,6.92-17.61,13.22-27.27,18.59c-9.71,5.32-19.89,9.75-30.38,13.09c-21.02,6.58-43.14,9-64.75,7.22
			c-2.71-0.15-5.39-0.53-8.08-0.81c-2.68-0.32-5.35-0.77-8.02-1.17c-5.31-0.99-10.59-2.08-15.78-3.51
			c-10.39-2.77-20.49-6.46-30.16-10.98c-19.32-9.09-36.87-21.47-51.73-36.27c16.6,12.83,34.98,22.98,54.34,29.96
			c19.38,6.87,39.72,10.63,59.95,10.66l3.79-0.01c1.26-0.03,2.52-0.1,3.78-0.14c2.52-0.06,5.03-0.29,7.54-0.48
			c1.26-0.08,2.5-0.23,3.75-0.37l3.74-0.42c2.48-0.37,4.97-0.72,7.43-1.16c9.86-1.78,19.5-4.51,28.79-8.02
			c9.28-3.56,18.13-8.06,26.5-13.3c8.36-5.27,16.29-11.32,23.69-17.97c14.73-13.33,27.78-28.82,37.62-45.71
			c4.86-8.41,9.02-17.23,11.32-25.83c1.14-4.26,1.75-8.49,1.58-11.93c-0.07-1.72-0.37-3.18-0.76-4.25c-0.2-0.52-0.4-0.98-0.63-1.3
			c-0.22-0.35-0.42-0.61-0.68-0.87c-0.51-0.5-1.28-1.04-2.49-1.56c-1.2-0.52-2.81-0.96-4.63-1.26c-3.67-0.61-8.1-0.64-12.65-0.3
			c-9.18,0.68-18.91,2.76-28.6,5.18c-19.44,4.96-38.87,11.86-58.18,19.12c-19.34,7.27-38.56,15.18-57.8,23.21
			c-19.27,7.98-38.51,16.19-58.02,24.19c-9.78,3.95-19.62,7.85-29.75,11.52c-5.08,1.83-10.21,3.6-15.62,5.21
			c-2.72,0.8-5.49,1.56-8.49,2.23c-1.51,0.33-3.06,0.64-4.77,0.89c-1.71,0.25-3.53,0.46-5.83,0.46c-1.16-0.01-2.44-0.06-4.06-0.33
			c-1.6-0.29-3.59-0.7-6.21-2.18c-1.28-0.74-2.73-1.81-4.02-3.3c-0.64-0.74-1.23-1.56-1.73-2.43c-0.48-0.83-0.8-1.55-1.09-2.32
			c-1.12-3.05-1.14-5.59-1-7.46c0.16-1.92,0.52-3.33,0.89-4.6c0.38-1.25,0.79-2.29,1.21-3.25c0.84-1.9,1.71-3.46,2.58-4.91
			c1.74-2.88,3.52-5.31,5.32-7.65c1.8-2.32,3.62-4.5,5.47-6.62c7.39-8.41,15.08-15.95,22.96-23.26c7.9-7.27,15.96-14.24,24.15-21.03
			c8.19-6.79,16.5-13.4,24.97-19.79c16.93-12.79,34.28-25,52.25-36.33c17.94-11.36,36.45-21.92,55.89-30.97
			c9.73-4.5,19.73-8.56,30.15-11.81c5.22-1.61,10.54-3.03,16.03-4.01c5.49-0.98,11.16-1.58,17.03-1.34l-1.03,0.08
			c5.73-0.7,11.4-0.71,17.06-0.1c5.64,0.66,11.25,1.95,16.57,4.08c5.31,2.12,10.35,5.03,14.71,8.72c4.34,3.68,8.12,8.06,10.96,12.9
			c2.89,4.82,4.88,10,6.47,15.1c0.79,2.58,1.53,5.05,2.22,7.67c0.72,2.59,1.25,5.23,1.73,7.86
			C661.15,236.27,661.26,247.02,659.53,257.4z"/>
	</g>
	<g>
		<path class="st0" d="M330.21,393.31c-12.32,55.98,1.88,108.2,37,132c7.42,5.03,26.54,16.08,50,13c52.42-6.89,87.08-79.17,73-97
			c-9.28-11.75-41.78-2.48-61,9c-36.55,21.83-63.95,74.87-44,114c23.8,46.68,101.28,46.65,140,18c21.6-15.99,40.72-47.98,31-64
			c-7.21-11.88-28.01-11.22-35-11c-32.48,1.03-82.32,24.14-86,70c-3.58,44.63,39.19,77.66,74,83c64.82,9.95,121.57-73.07,115-82
			c-2.82-3.84-20.36,1.9-71,31"/>
		<path d="M330.21,393.31c-2.31,13.1-3.44,26.37-2.92,39.55c0.46,13.16,2.42,26.27,6.41,38.67c3.99,12.37,9.79,24.16,17.9,34.02
			c8.02,9.93,18.36,17.64,29.98,22.47c5.79,2.39,11.81,4.18,17.92,4.97c3.05,0.46,6.11,0.56,9.16,0.58c1.52-0.1,3.05-0.1,4.56-0.28
			c1.51-0.21,3.02-0.3,4.51-0.6c11.98-2.1,23.16-8.04,32.67-16.03c9.52-8.02,17.59-17.94,23.9-28.77
			c3.14-5.42,5.86-11.08,7.91-16.86c1.03-2.89,1.9-5.8,2.54-8.69c0.65-2.88,1.07-5.76,1.13-8.43c0.09-2.66-0.28-5.15-0.95-6.67
			c-0.07-0.2-0.18-0.34-0.25-0.51l-0.25-0.41c-0.1-0.09-0.16-0.22-0.25-0.3c-0.1-0.08-0.18-0.17-0.26-0.27
			c-0.39-0.35-1-0.71-1.83-1.03c-0.82-0.33-1.87-0.6-3.06-0.75c-1.16-0.18-2.47-0.24-3.81-0.23c-2.7,0.03-5.59,0.34-8.51,0.88
			c-5.85,1.1-11.81,2.91-17.56,5.18c-5.75,2.28-11.38,5.01-16.45,8.22c-5.08,3.22-9.89,6.99-14.3,11.24
			c-4.4,4.25-8.46,8.9-12.1,13.85c-3.66,4.94-6.84,10.23-9.54,15.71c-2.69,5.48-4.93,11.17-6.46,16.98
			c-1.55,5.8-2.45,11.7-2.65,17.54c-0.13,5.83,0.52,11.58,1.99,17.04c1.51,5.45,3.95,10.58,7.11,15.19
			c3.17,4.61,7.14,8.68,11.71,12.11c9.14,6.89,20.55,11.23,32.47,13.3c11.95,2.08,24.45,2.03,36.59,0.13
			c12.13-1.89,24.03-5.62,34.43-11.43c5.22-2.91,9.87-6.29,14.25-10.41c4.38-4.08,8.39-8.67,11.93-13.55
			c3.53-4.87,6.57-10.08,8.7-15.33c1.07-2.62,1.87-5.25,2.32-7.73c0.44-2.46,0.57-4.83,0.21-6.62c-0.13-0.94-0.43-1.67-0.72-2.35
			c-0.31-0.66-0.7-1.23-1.23-1.8c-1.04-1.13-2.76-2.24-4.97-3.1c-2.21-0.87-4.83-1.48-7.61-1.89c-2.79-0.4-5.72-0.59-8.74-0.62
			c-1.51-0.02-3.03,0-4.66,0.05c-1.47,0.07-2.93,0.12-4.42,0.27c-2.96,0.27-5.95,0.67-8.92,1.28c-5.96,1.14-11.85,2.95-17.55,5.17
			c-5.68,2.28-11.19,5.01-16.3,8.27c-5.12,3.24-9.9,6.96-14.06,11.19c-8.41,8.39-14.26,18.88-16.34,30.33
			c-0.58,2.85-0.82,5.78-0.98,8.7c-0.03,2.92,0.01,5.85,0.41,8.74c0.3,2.91,0.98,5.77,1.71,8.62c0.87,2.81,1.79,5.63,3.06,8.32
			c4.85,10.88,12.86,20.55,22.43,28.36c9.62,7.75,20.85,13.81,32.69,17.15c5.92,1.69,11.94,2.53,18.06,2.57
			c6.11-0.01,12.27-0.81,18.31-2.33c12.11-3.04,23.66-8.85,34.25-16.12c10.62-7.27,20.36-16.01,29-25.72
			c4.31-4.86,8.36-9.97,11.93-15.35c1.79-2.69,3.43-5.45,4.85-8.26c0.7-1.4,1.33-2.83,1.81-4.22c0.25-0.7,0.42-1.37,0.56-2.01
			c0.12-0.61,0.13-1.2,0.1-1.39c0-0.03,0-0.09,0.02-0.02c0.01,0.02,0.03,0.03,0.05,0.03c0.01,0.03,0.03,0.06,0.06,0.07
			c0.07,0.03,0.05,0.05,0.09,0.04c-0.04,0-0.03-0.03-0.1-0.05c-0.25-0.11-0.88-0.19-1.55-0.15c-1.34,0.04-2.89,0.35-4.41,0.73
			c-3.06,0.78-6.16,1.86-9.21,3.03c-6.13,2.36-12.16,5.1-18.16,7.91c-12.02,5.61-23.82,11.74-35.62,17.88
			c11.25-7.09,22.67-13.93,34.31-20.43c5.85-3.21,11.76-6.32,17.89-9.11c3.07-1.39,6.19-2.7,9.51-3.77
			c1.67-0.52,3.38-0.99,5.35-1.19c0.98-0.09,2.05-0.14,3.39,0.22c0.33,0.08,0.71,0.26,1.05,0.41c0.37,0.23,0.74,0.43,1.08,0.78
			c0.17,0.17,0.33,0.35,0.49,0.53c0.13,0.19,0.25,0.38,0.36,0.58c0.25,0.42,0.36,0.77,0.47,1.13c0.38,1.43,0.28,2.53,0.18,3.56
			c-0.14,1-0.34,1.95-0.59,2.83c-0.5,1.79-1.13,3.44-1.81,5.06c-1.38,3.22-3.03,6.24-4.77,9.19c-3.49,5.88-7.46,11.41-11.71,16.72
			c-8.52,10.58-18.24,20.23-29.17,28.54c-5.47,4.14-11.28,7.9-17.41,11.16c-6.13,3.27-12.61,6-19.38,8.01
			c-6.76,2.03-13.85,3.21-21.03,3.48c-7.17,0.23-14.46-0.53-21.39-2.24c-13.91-3.36-26.74-9.84-38.08-18.39
			c-5.62-4.34-10.93-9.18-15.57-14.7c-4.66-5.49-8.75-11.57-11.89-18.21c-1.63-3.29-2.91-6.77-4.07-10.28
			c-1.03-3.56-1.97-7.16-2.45-10.86c-0.59-3.68-0.77-7.41-0.81-11.13c0.09-3.72,0.32-7.44,0.96-11.13
			c1.2-7.38,3.56-14.63,7.05-21.25l1.32-2.48l1.45-2.39c0.93-1.62,2.05-3.1,3.09-4.65c2.21-2.97,4.54-5.86,7.1-8.5
			c5.06-5.35,10.75-9.95,16.78-13.93c6.01-4.02,12.45-7.27,19.05-10.05c3.32-1.34,6.68-2.61,10.11-3.65c1.7-0.56,3.45-1,5.18-1.5
			c1.75-0.42,3.49-0.89,5.26-1.23c3.53-0.77,7.13-1.32,10.78-1.7c1.82-0.21,3.67-0.31,5.53-0.41c1.69-0.07,3.5-0.12,5.31-0.13
			c3.63-0.01,7.34,0.16,11.14,0.65c3.8,0.5,7.71,1.33,11.71,2.84c3.97,1.52,8.16,3.8,11.71,7.5c1.76,1.83,3.31,4.02,4.44,6.35
			c1.11,2.32,1.94,4.75,2.33,7.1c0.91,4.75,0.57,9.14-0.1,13.2c-0.71,4.06-1.87,7.82-3.27,11.37c-2.82,7.09-6.52,13.46-10.73,19.38
			c-4.23,5.91-9,11.38-14.33,16.38c-2.67,2.5-5.49,4.88-8.5,7.09c-1.53,1.05-3.03,2.17-4.6,3.15c-1.58,0.95-3.12,1.99-4.74,2.85
			c-12.82,7.18-26.69,11.51-40.79,13.74c-14.11,2.16-28.55,2.21-42.8-0.3c-7.12-1.27-14.18-3.21-21.02-5.98
			c-6.83-2.77-13.46-6.38-19.48-10.99c-6.02-4.6-11.42-10.2-15.72-16.57c-4.3-6.37-7.55-13.45-9.53-20.83
			c-1.94-7.39-2.7-14.99-2.46-22.44c0.29-7.45,1.57-14.75,3.54-21.76c1.97-7.02,4.72-13.72,7.97-20.12
			c3.27-6.39,7.06-12.48,11.39-18.17c8.62-11.38,19.16-21.38,31.64-28.91c6.25-3.77,12.7-6.72,19.35-9.21
			c6.66-2.46,13.5-4.46,20.75-5.62c3.63-0.57,7.38-0.92,11.32-0.85c1.98,0.04,4,0.18,6.11,0.55c2.09,0.34,4.29,0.9,6.53,1.87
			c2.22,0.95,4.53,2.31,6.53,4.28c0.49,0.5,0.96,1.04,1.41,1.57c0.45,0.54,0.83,1.12,1.23,1.7c0.34,0.58,0.69,1.16,0.99,1.75
			c0.27,0.58,0.57,1.18,0.78,1.75c0.91,2.33,1.38,4.59,1.63,6.74c0.25,2.15,0.27,4.2,0.17,6.19c-0.2,3.97-0.87,7.68-1.77,11.26
			c-0.89,3.58-2.05,7-3.35,10.34c-2.61,6.67-5.88,12.94-9.58,18.91c-7.43,11.9-16.7,22.66-27.86,31.37
			c-5.58,4.34-11.64,8.14-18.16,11.12c-6.51,2.98-13.48,5.11-20.65,6.06c-1.79,0.28-3.6,0.34-5.39,0.5c-1.8,0.12-3.6,0.07-5.4,0.1
			c-3.59-0.16-7.18-0.44-10.68-1.12c-7.04-1.23-13.8-3.5-20.14-6.52c-12.67-5.99-23.83-15.25-31.97-26.44
			c-8.26-11.14-13.81-23.93-17.15-37.07c-3.37-13.16-4.58-26.71-4.23-40.1C324.87,419.47,326.84,406.18,330.21,393.31z"/>
	</g>
	<path class="st1" d="M267.21,332.03c-2.64,1.83-4.28,3.61-4.96,4.35c-23.75,26.05-74.93,82.19-60.04,107.65
		c10.78,18.43,54.15,17.31,84,4c39.82-17.75,74.66-65.71,60-95C334.23,329.09,288.9,317.01,267.21,332.03z"/>
	<path class="st1" d="M183.62,230.6"/>
</g>
<g id="Ebene_1">
</g>
</svg>
